<?xml version="1.0" encoding="UTF-8"?>
<svg width="207px" height="36px" viewBox="0 0 207 36" version="1.1" xmlns="http://www.w3.org/2000/svg" xmlns:xlink="http://www.w3.org/1999/xlink">
    <!-- Generator: Sketch 41.1 (35376) - http://www.bohemiancoding.com/sketch -->
    <title>Combined Shape</title>
    <desc>Created with Sketch.</desc>
    <defs></defs>
    <g id="Page-1" stroke="none" stroke-width="1" fill="none" fill-rule="evenodd">
        <g id="Home" transform="translate(-62.000000, -102.000000)" fill="#FFFFFF">
            <g id="logo" transform="translate(62.000000, 55.000000)">
                <path d="M196.028548,64.389182 C189.416421,70.9279583 186.948395,72.2177332 186.618168,72.4077513 C186.522394,72.4559725 186.450564,72.4559725 186.402677,72.4077513 C186.35479,72.3595301 186.378733,72.2630891 186.474508,72.1184254 C186.713943,71.8773193 187.097034,71.467445 187.623792,70.8887903 C188.150549,70.3101356 188.773072,69.6471037 189.491378,68.8996747 C190.209684,68.1522458 190.999809,67.3566075 191.861776,66.5127361 C192.723743,65.6688646 193.609641,64.8611712 194.519495,64.0896316 C194.902592,63.7520831 195.106109,63.3904293 195.130052,63.0046595 C195.153996,62.6188897 195.058223,62.2692911 194.842731,61.9558531 C194.627239,61.6424152 194.32795,61.3651473 193.944853,61.1240411 C193.561756,60.882935 193.178666,60.7382735 192.795569,60.6900523 C192.604021,60.6418311 192.400504,60.6900516 192.185012,60.8347152 C191.96952,60.9793789 191.74206,61.1722609 191.502625,61.413367 C191.071641,60.979376 190.664607,60.6659428 190.281511,60.4730579 C189.46743,60.0872881 188.521675,60.0872881 187.444216,60.4730579 C186.366757,60.8588277 185.301286,61.3892532 184.24777,62.0643503 C183.194255,62.7394475 182.248499,63.462755 181.410475,64.2342946 C180.572452,65.0058342 179.985844,65.5603699 179.650634,65.8979185 C177.399942,68.1643161 176.166869,70.1413566 175.951377,71.8290995 C175.735885,73.5168423 176.394322,74.4812524 177.926709,74.7223585 C178.118257,74.7705797 178.417546,74.6379733 178.824587,74.3245354 C179.231627,74.0110974 179.686547,73.6132783 180.189361,73.131066 C180.692175,72.6488538 181.206954,72.1304834 181.733711,71.5759393 C182.260469,71.0213952 182.739333,70.5271351 183.170316,70.0931441 C183.409752,69.852038 183.768899,69.5265496 184.24777,69.1166692 C184.726641,68.7067888 185.061845,68.5018516 185.253393,68.5018516 C184.295652,69.4662761 183.6013,70.3945208 183.170316,71.2866134 C182.739333,72.1787061 182.64356,72.8899585 182.882995,73.4203919 C183.122431,73.9990466 183.481578,74.3607004 183.960449,74.5053641 C184.43932,74.6500277 184.89424,74.7223585 185.325224,74.7223585 C188.446213,74.7223585 193.726824,69.1166692 196.710861,65.8979185 C196.78282,65.8202991 196.851088,65.7453716 196.9158,65.6730514 C197.149405,65.4509449 197.348278,65.2847967 197.512422,65.1746038 C197.727914,65.0299401 197.955374,64.921444 198.194809,64.8491121 C198.434244,64.7767803 198.697619,64.75267 198.984942,64.7767806 C199.272264,64.8008913 199.655355,64.8129464 200.134226,64.8129464 C200.038452,64.8129464 199.990565,64.8611669 199.990565,64.9576093 C199.032824,65.8738126 198.134955,66.7900021 197.296931,67.7062054 C196.458907,68.6224087 195.728641,69.6109289 195.106109,70.6717959 C194.723012,71.2986718 194.639211,71.9375934 194.854703,72.58858 C195.070195,73.2395665 195.513143,73.8302676 196.183562,74.3607011 C196.422998,74.553586 196.758202,74.6620821 197.189186,74.6861928 C197.620169,74.7103034 197.883544,74.7223585 197.979318,74.7223585 C198.60185,74.7705797 199.344089,74.4933118 200.206056,73.8905465 C201.068023,73.2877812 201.918006,72.5885839 202.75603,71.7929337 C203.594053,70.9972835 204.348263,70.2137004 205.018682,69.4421608 C205.689101,68.6706212 206.144022,68.1643059 206.383457,67.9231998 C206.575005,67.7303149 206.730636,67.5133227 206.850354,67.2722165 C206.970071,67.0311104 207.017958,66.8382284 206.994014,66.6935647 C206.970071,66.5489011 206.850355,66.4886254 206.634863,66.5127361 C206.419371,66.5368467 206.096138,66.6935633 205.665155,66.9828906 C205.473606,67.1275543 205.12643,67.4048222 204.623616,67.8147026 C204.120802,68.224583 203.570109,68.6826778 202.97152,69.1890006 C202.372932,69.6953235 201.738438,70.2016388 201.068019,70.7079616 C200.3976,71.2142845 199.775077,71.6362139 199.200433,71.9737624 C198.721562,72.2630898 198.410301,72.383641 198.266639,72.3354198 C198.122978,72.2871986 198.29058,71.9978756 198.769451,71.4674421 C199.104661,71.0334511 199.547609,70.5271358 200.098311,69.9484811 C200.649012,69.3698264 201.247591,68.7791253 201.894067,68.17636 C202.540542,67.5735947 203.210951,66.9828935 203.905314,66.4042388 C204.599676,65.8255841 205.282057,65.3192689 205.952476,64.8852779 C206.670782,64.4030656 206.814441,63.7761991 206.383457,63.0046595 C206.287683,62.9082171 206.060223,62.6791697 205.70107,62.3175105 C205.341917,61.9558513 204.898968,61.7750244 204.37221,61.7750244 C204.132775,61.7268032 203.845457,61.7991339 203.510247,61.9920188 C203.175038,62.1849037 202.81589,62.3536755 202.432794,62.4983392 C201.714488,62.7876665 201.235624,62.9684934 200.996189,63.0408252 C200.756753,63.1131571 200.589151,63.101102 200.493377,63.0046595 C200.397603,62.9082171 200.325773,62.7876658 200.277886,62.6430021 C200.229999,62.4983385 200.277885,62.3777872 200.421547,62.2813447 C200.804643,61.9920174 201.319422,61.666529 201.965897,61.3048698 C202.612372,60.9432106 203.127151,60.6177223 203.510247,60.3283949 C203.749683,60.0872888 203.80954,59.822076 203.689823,59.5327487 C203.570105,59.2434213 203.366588,58.9661535 203.079266,58.7009367 C202.791943,58.43572 202.456739,58.242838 202.073642,58.1222849 C201.690546,58.0017319 201.379284,57.9655665 201.139849,58.0137877 C200.756753,58.1584514 200.098315,58.4959949 199.164517,59.0264284 C198.23072,59.5568618 197.332851,60.2560591 196.470883,61.1240411 C196.087787,61.5098109 195.848355,61.8714647 195.752581,62.2090133 C195.656807,62.5465618 195.800466,62.9082156 196.183562,63.2939854 C196.422998,63.5350915 196.458912,63.776194 196.291308,64.0173002 C196.200182,64.1483886 196.112595,64.2723489 196.028548,64.389182 Z M161.989552,70.9138603 C161.665032,71.1915563 161.330763,71.4725252 160.986743,71.756768 C160.052945,72.5283076 159.107189,73.2154497 158.149448,73.8182151 C157.191707,74.4209804 156.401582,74.7223585 155.77905,74.7223585 C155.348066,74.7223585 154.893146,74.6500277 154.414275,74.5053641 C153.935405,74.3607004 153.576257,73.9990466 153.336822,73.4203919 C153.097386,72.8899585 153.145273,72.2269266 153.480482,71.4312764 C153.815692,70.6356262 154.438214,69.7797123 155.348068,68.863509 C155.587504,68.6224029 155.70722,68.4897965 155.70722,68.4656859 C155.70722,68.4415753 155.563561,68.5018509 155.276238,68.6465146 C154.941029,68.8393995 154.486108,69.2010532 153.911463,69.7314867 C153.336819,70.2619202 152.750211,70.8285111 152.151623,71.4312764 C151.553034,72.0340417 150.99037,72.6247428 150.463612,73.2033975 C149.936854,73.7820522 149.52982,74.1919265 149.242498,74.4330326 C149.098836,74.5776963 148.835461,74.6620821 148.452365,74.6861928 C148.069268,74.7103034 147.698149,74.6620829 147.338996,74.5415298 C146.979843,74.4209767 146.65661,74.2280947 146.369288,73.962878 C146.081965,73.6976613 145.938306,73.3480626 145.938306,72.9140716 C145.938306,72.0460896 146.333369,71.0214039 147.123505,69.8399839 C147.913642,68.6585639 148.823483,67.4771616 149.853055,66.2957416 C149.860115,66.2876401 149.867175,66.2795437 149.874234,66.2714524 C149.719443,66.3600865 149.55276,66.4525696 149.374186,66.5489018 C148.895316,66.8382291 148.224907,67.1757726 147.36294,67.5615424 C146.500972,67.9473122 145.65099,68.3451314 144.812966,68.7550118 C143.974942,69.1648922 143.220732,69.5506562 142.550313,69.9123154 C141.879894,70.2739746 141.520747,70.5753527 141.47286,70.8164588 C141.13765,71.8773258 140.634843,72.8296807 139.964424,73.6735521 C139.294005,74.5174235 138.539795,75.2527862 137.701772,75.8796621 C136.863748,76.506538 136.001794,77.0007982 135.115883,77.3624573 C134.229972,77.7241165 133.403933,77.9531639 132.637739,78.0496064 C132.158869,78.1460488 131.680005,78.1701591 131.201135,78.1219378 C130.722264,78.0737166 130.363116,77.9772756 130.123681,77.8326119 C129.549036,77.5915058 129.42932,77.1454662 129.76453,76.4944796 C130.099739,75.8434931 130.626489,75.156351 131.344795,74.4330326 C132.063101,73.7097142 132.817311,73.0466823 133.607448,72.443917 C134.397584,71.8411517 134.960249,71.4433326 135.295459,71.2504477 C135.822216,70.9128991 136.145449,70.6717966 136.265167,70.5271329 C136.384884,70.3824693 136.27714,70.1413667 135.941931,69.8038182 C135.654608,69.5144908 135.223631,69.1287268 134.648986,68.6465146 C134.074341,68.1643023 133.53562,67.6459319 133.032806,67.0913879 C132.529992,66.5368438 132.122958,65.9461426 131.811692,65.3192667 C131.500426,64.6923908 131.464511,64.0896345 131.703946,63.5109798 C132.13493,62.4018917 132.613793,61.6062534 133.140551,61.1240411 C133.667309,60.6418289 134.313775,60.1114034 135.079968,59.5327487 C137.474321,57.6038997 139.844696,55.9523475 142.191162,54.5780426 C144.537628,53.2037377 146.704486,52.0464457 148.691799,51.1061318 C150.679112,50.1658179 152.414993,49.4304553 153.899492,48.9000218 C155.383991,48.3695884 156.485377,47.9597141 157.203683,47.6703868 C158.592408,47.1399533 159.74168,47.019402 160.651535,47.3087294 C161.561389,47.5980567 162.112082,47.7668285 162.30363,47.8150497 C164.027565,48.4901468 164.841633,49.2134544 164.745859,49.984994 C164.650085,50.7565336 163.883903,51.7691641 162.447291,53.0229159 C162.064194,53.4086857 161.477587,53.9511664 160.68745,54.6503741 C159.897313,55.3495819 158.927615,56.1211099 157.778325,56.9649813 C156.629035,57.8088527 155.312161,58.7129871 153.827662,59.6774116 C152.343162,60.6418361 150.66714,61.5580257 148.799544,62.4260077 C148.416448,62.6188926 147.853783,62.84794 147.111534,63.1131567 C146.369284,63.3783734 145.603103,63.6074208 144.812966,63.8003057 C144.022829,63.9931906 143.304534,64.125797 142.658059,64.1981288 C142.011583,64.2704607 141.568634,64.1860748 141.329199,63.9449687 C140.802441,63.5109777 140.574981,62.9202765 140.646812,62.1728475 C140.718642,61.4254186 141.257364,60.6418354 142.262992,59.8220746 C142.45454,60.1114019 142.777773,60.2681186 143.232701,60.2922292 C143.687628,60.3163398 144.190434,60.2681193 144.741136,60.1475662 C145.291837,60.0270132 145.818587,59.8823517 146.321401,59.7135774 C146.824215,59.5448031 147.243221,59.3880865 147.57843,59.2434228 C148.009414,59.0987591 148.607993,58.8094361 149.374186,58.3754451 C150.140379,57.9414541 150.930504,57.4713042 151.744584,56.9649813 C152.558665,56.4586585 153.336818,55.9643983 154.079067,55.4821861 C154.821317,54.9999738 155.383982,54.6142098 155.767078,54.3248825 C156.245949,53.9873339 156.700869,53.6256801 157.131853,53.2399103 C157.562836,52.8541405 157.993814,52.4683765 158.424797,52.0826067 C158.568458,51.9379431 158.640288,51.7450611 158.640288,51.5039549 C157.060015,52.0826096 155.372021,52.697421 153.576256,53.3484076 C151.780491,53.9993941 149.972781,54.7347567 148.153072,55.5545176 C146.333364,56.3742784 144.549597,57.3266333 142.801719,58.4116108 C141.053841,59.4965884 139.38979,60.714156 137.809517,62.0643503 C137.282759,62.5947838 136.995441,63.0287683 136.947554,63.3663169 C136.899667,63.7038654 137.043326,64.1137397 137.378536,64.595952 C138.144729,65.7050401 138.743308,66.5247886 139.174292,67.0552221 C139.605275,67.5856556 140.108082,68.1401914 140.682727,68.718846 C141.11371,68.5259611 141.568631,68.3451343 142.047501,68.17636 C142.526372,68.0075857 142.957349,67.8267588 143.340446,67.6338739 C144.346074,67.2481041 145.327745,66.850285 146.285486,66.4404046 C147.243227,66.0305242 148.200954,65.6809255 149.158696,65.3915982 C150.020663,65.1022708 150.619242,64.9455542 150.954452,64.9214436 C151.006724,64.9176838 151.054339,64.9153897 151.097295,64.9145614 C151.704384,64.2635947 152.307231,63.6510735 152.90584,63.076991 C153.911469,62.1125665 154.653707,61.4133692 155.132578,60.9793782 C155.802997,60.4007235 156.401576,60.1234556 156.928334,60.1475662 C157.455092,60.1716768 157.957898,60.4248345 158.436769,60.9070467 C158.724091,61.1963741 158.915637,61.5218625 159.011411,61.8835216 C159.107185,62.2451808 158.819867,62.6671102 158.149448,63.1493225 C157.574803,63.5350922 156.892423,64.0775729 156.102286,64.7767806 C155.312149,65.4759884 154.498081,66.2234062 153.660058,67.0190564 C152.822034,67.8147066 152.019938,68.6224 151.253744,69.4421608 C150.487551,70.2619216 149.865029,70.9611189 149.386158,71.5397736 C149.098836,71.8773222 148.931233,72.1063695 148.883346,72.2269226 C148.835459,72.3474757 148.847431,72.3956962 148.919262,72.3715855 C148.991092,72.3474749 149.110808,72.2871993 149.278413,72.1907569 C149.446017,72.0943144 149.601648,71.9978734 149.745309,71.901431 C151.134034,70.7923428 152.666398,69.5506649 154.342445,68.17636 C156.018492,66.8020551 157.526912,65.6568182 158.86775,64.7406149 C159.777605,63.7761904 160.543786,63.0046624 161.166318,62.4260077 C161.78885,61.847353 162.291657,61.3892582 162.674753,61.0517097 C163.05785,60.7141611 163.345168,60.4971688 163.536716,60.4007264 C163.728265,60.3042839 163.871924,60.2560634 163.967698,60.2560634 C164.302907,60.3042847 164.650083,60.436891 165.009236,60.6538866 C165.368389,60.8708821 165.643736,61.1360948 165.835284,61.4495328 C166.026832,61.7629707 166.122605,62.1005143 166.122605,62.4621734 C166.122605,62.8238326 165.955003,63.149321 165.619793,63.4386484 C165.045148,64.017303 164.350796,64.6562247 163.536716,65.3554324 C162.722636,66.0546402 161.908568,66.7900028 161.094488,67.5615424 C160.280408,68.333082 159.514226,69.1166652 158.79592,69.9123154 C158.077614,70.7079656 157.526921,71.4674385 157.143824,72.1907569 L157.000164,72.4077513 C157.335373,72.2148664 157.850152,71.8773229 158.544514,71.3951106 C159.238877,70.9128984 159.957172,70.394528 160.699422,69.8399839 C161.441671,69.2854398 162.147995,68.7550143 162.818414,68.2486915 C163.482011,67.7475203 164.004849,67.3762782 164.386941,67.1349543 C164.809056,66.6189878 165.223995,66.1463692 165.631765,65.7170898 C166.158523,65.1625457 166.5895,64.7406164 166.924709,64.451289 C168.313434,63.2939796 169.474678,62.3898452 170.408476,61.7388587 C171.342274,61.0878722 172.28803,60.6418325 173.245771,60.4007264 C173.628867,60.3042839 174.167589,60.2440083 174.861951,60.2198977 C175.556314,60.1957871 176.35841,60.5936062 177.268265,61.413367 C177.459813,61.1722609 177.627415,61.0034892 177.771076,60.9070467 C177.914738,60.8106043 178.154169,60.7382735 178.489379,60.6900523 C178.776701,60.6418311 179.040076,60.6779964 179.279511,60.7985495 C179.518947,60.9191026 179.734435,61.0637641 179.925984,61.2325384 C180.117532,61.4013126 180.273163,61.5580293 180.39288,61.7026929 C180.512598,61.8473566 180.596399,61.9437976 180.644286,61.9920188 C180.883721,62.3777886 181.039352,62.6912219 181.111183,62.932328 C181.183013,63.1734341 181.027383,63.4627572 180.644286,63.8003057 C178.728803,65.7291547 176.825321,67.6218094 174.933782,69.4783265 C173.042242,71.3348437 170.687825,73.802131 168.868117,75.8756437 C169.394874,76.4542984 169.682192,77.0329444 169.73008,77.6115991 C169.777967,78.1902538 169.670222,78.7327344 169.406843,79.2390573 C169.143465,79.7453801 168.760374,80.21553 168.25756,80.649521 C167.754745,81.0835121 167.216024,81.4451658 166.641379,81.7344932 C165.779412,82.1684842 164.989287,82.3613662 164.270981,82.313145 C163.552675,82.2649238 162.99001,82.0720417 162.58297,81.7344932 C162.17593,81.3969446 161.960442,80.9629601 161.936498,80.4325266 C161.912554,79.9020931 162.163958,79.3475574 162.690716,78.7689027 C160.583685,79.0100088 152.337194,79.2270011 150.421711,79.419886 C148.506228,79.6127709 146.303456,79.7574324 143.813328,79.8538748 C143.573893,79.8538748 143.430234,79.6609928 143.382347,79.275223 C143.33446,78.8894532 143.358403,78.4554687 143.454177,77.9732565 C143.549951,77.4910442 143.717553,77.0450046 143.956989,76.6351242 C144.196424,76.2252438 144.483742,75.9720861 144.818952,75.8756437 C147.021757,75.8756437 149.272415,75.8274232 151.570995,75.7309807 C153.869574,75.6345383 162.451269,75.5863178 164.845623,75.5863178 C165.420268,74.9112206 166.421896,73.8182176 166.852879,73.3118947 C167.283863,72.8055719 167.702868,72.3113117 168.109908,71.8290995 C168.516949,71.3468872 168.935954,70.840572 169.366938,70.3101385 C169.797921,69.779705 170.300728,69.1769488 170.875373,68.5018516 C170.396502,68.8394002 169.821866,69.3457155 169.151447,70.0208126 C168.481028,70.6959097 167.798648,71.3830519 167.104285,72.0822596 C166.409923,72.7814674 165.763457,73.3721685 165.164868,73.8543808 C164.56628,74.336593 164.099388,74.5535853 163.764179,74.5053641 C162.854324,74.3607004 162.255745,74.0472671 161.968423,73.5650549 C161.6811,73.0828426 161.597299,72.5162518 161.717017,71.8652652 C161.773374,71.5588146 161.864218,71.2416804 161.989552,70.9138603 Z M62.6048127,73.5186617 C62.4503046,73.6207268 62.2954822,73.7205779 62.1403452,73.8182151 C61.1826038,74.4209804 60.392479,74.7223585 59.7699471,74.7223585 C59.3389635,74.7223585 58.8840432,74.6500277 58.4051725,74.5053641 C57.9263018,74.3607004 57.5671542,73.9990466 57.3277188,73.4203919 C57.0882835,72.8899585 57.1840562,72.1787061 57.6150398,71.2866134 C58.0460234,70.3945208 58.7403755,69.4662761 59.6981169,68.5018516 C59.5065686,68.5018516 59.1713642,68.7067888 58.6924935,69.1166692 C58.2136228,69.5265496 57.8544752,69.852038 57.6150398,70.0931441 C57.1840562,70.5271351 56.7051927,71.0213952 56.1784349,71.5759393 C55.6516772,72.1304834 55.1368989,72.6488538 54.6340847,73.131066 C54.1312704,73.6132783 53.6763501,74.0110974 53.26931,74.3245354 C52.8622699,74.6379733 52.5629803,74.7705797 52.371432,74.7223585 C51.0049956,74.507363 50.3334689,73.7172412 50.356838,72.3519726 C50.1994828,72.4569813 50.0409758,72.5599609 49.8813168,72.6609114 C48.8517449,73.311898 47.774302,73.8302684 46.6489558,74.2160382 C45.5236097,74.601808 44.3623657,74.7705797 43.165189,74.7223585 C42.3511088,74.7223585 41.620842,74.5415316 40.9743665,74.1798724 C40.3278911,73.8182132 39.8609992,73.2877877 39.5736768,72.58858 C39.4275713,72.2330279 39.3495703,71.8431894 39.3396736,71.4190609 C39.2122311,71.5433878 39.0827226,71.668012 38.951148,71.7929337 C38.1131243,72.5885839 37.2631416,73.2877812 36.4011743,73.8905465 C35.5392071,74.4933118 34.7969686,74.7705797 34.1744367,74.7223585 C34.0786626,74.7223585 33.8152877,74.7103034 33.3843041,74.6861928 C32.9533204,74.6620821 32.618116,74.553586 32.3786806,74.3607011 C31.7082617,73.8302676 31.2653129,73.2395665 31.0498211,72.58858 C30.8343293,71.9375934 30.9181304,71.2986718 31.301227,70.6717959 C31.9237589,69.6109289 32.6540257,68.6224087 33.4920494,67.7062054 C34.3300731,66.7900021 35.2279422,65.8738126 36.1856836,64.9576093 C36.1856836,64.8611669 36.2335699,64.8129464 36.3293441,64.8129464 C35.8504734,64.8129464 35.4673826,64.8008913 35.1800602,64.7767806 C34.8927377,64.75267 34.6293628,64.7767803 34.3899275,64.8491121 C34.1504921,64.921444 33.923032,65.0299401 33.7075402,65.1746038 C33.4920483,65.3192674 33.2167018,65.5603699 32.8814923,65.8979185 C32.4026217,66.3801308 32.0075593,66.790005 31.6962933,67.1275536 C31.4991808,67.3413098 30.3194574,68.7515998 29.3712184,69.8552337 C29.2419662,70.009294 29.1031509,70.1729841 28.9547723,70.3463042 C28.356184,71.045512 27.6259171,71.7929298 26.7639499,72.58858 C25.9019826,73.3842302 24.9203124,74.1678133 23.8189098,74.9393529 C22.7175073,75.7108925 21.4964053,76.337759 20.1555674,76.8199713 C19.4851484,77.0610774 18.5753078,77.3504004 17.4260181,77.687949 C16.2767284,78.0254975 15.0915413,78.2424898 13.870421,78.3389323 C12.6493007,78.4353747 11.5000283,78.3750991 10.4225693,78.1581036 C9.34511023,77.9411081 8.56695703,77.3986274 8.08808634,76.5306454 C7.51344151,75.5662209 7.40569722,74.3486532 7.76485024,72.8779059 C8.12400326,71.4071585 8.71061105,69.8882127 9.52469123,68.3210229 C10.3387714,66.7538331 11.2964984,65.2589976 12.397901,63.8364715 C13.4993036,62.4139453 14.5288601,61.2928187 15.4866015,60.4730579 C13.1880222,60.1837305 10.8176478,59.7859114 8.37540732,59.2795885 C5.9331668,58.7732657 3.70645149,58.037903 1.69519459,57.0734785 C0.833227352,56.6394875 0.306477494,56.1211171 0.114929218,55.5183518 C-0.0766190575,54.9155865 -0.0287327069,54.3731059 0.258589707,53.8908936 C0.545912121,53.4086814 1.02477563,53.0470276 1.69519459,52.8059215 C2.36561356,52.5648154 3.107852,52.5889256 3.92193217,52.878253 C8.99796148,54.6142171 14.3372896,55.9161706 19.9400767,56.7841526 C20.7541568,56.1090555 21.939344,55.2772518 23.4956738,54.2887167 C25.0520035,53.3001816 26.7878837,52.3357716 28.7033665,51.3954577 C30.6188492,50.4551438 32.6420475,49.6353953 34.7730221,48.9361876 C36.9039967,48.2369798 38.9511382,47.8150504 40.914508,47.6703868 C42.0637977,47.6221655 43.1172974,47.7186065 44.0750388,47.9597127 C45.0327801,48.2008188 45.8109333,48.5624725 46.4095217,49.0446848 C47.0081101,49.526897 47.3912009,50.1296533 47.5588056,50.8529717 C47.7264103,51.57629 47.5707797,52.3719283 47.091909,53.2399103 C46.0862806,55.0723169 44.5419458,56.5430422 42.4588583,57.6521303 C41.5291357,58.147138 40.5564939,58.5893116 39.5409266,58.9786536 C39.6916967,59.1581588 39.8063677,59.3428564 39.8849412,59.5327487 C40.0046588,59.822076 39.9448009,60.0872888 39.7053656,60.3283949 C39.322269,60.6177223 38.8074907,60.9432106 38.1610153,61.3048698 C37.5145399,61.666529 36.9997616,61.9920174 36.6166651,62.2813447 C36.4730038,62.3777872 36.4251175,62.4983385 36.4730046,62.6430021 C36.5208916,62.7876658 36.5927212,62.9082171 36.6884953,63.0046595 C36.7842694,63.101102 36.9518717,63.1131571 37.191307,63.0408252 C37.4307423,62.9684934 37.9096059,62.7876665 38.6279119,62.4983392 C39.0110084,62.3536755 39.3701561,62.1849037 39.7053656,61.9920188 C40.040575,61.7991339 40.3278931,61.7268032 40.5673285,61.7750244 C41.0940862,61.7750244 41.537035,61.9558513 41.896188,62.3175105 C42.255341,62.6791697 42.4828012,62.9082171 42.5785753,63.0046595 C43.009559,63.7761991 42.8658999,64.4030656 42.1475939,64.8852779 C41.4771749,65.3192689 40.7947944,65.8255841 40.1004319,66.4042388 C39.4060694,66.9828935 38.7356605,67.5735947 38.0891851,68.17636 C37.4427096,68.7791253 36.8441302,69.3698264 36.293429,69.9484811 C35.7427277,70.5271358 35.2997789,71.0334511 34.9645694,71.4674421 C34.4856987,71.9978756 34.3180965,72.2871986 34.4617577,72.3354198 C34.6054189,72.383641 34.9166802,72.2630898 35.3955509,71.9737624 C35.9701957,71.6362139 36.5927183,71.2142845 37.2631372,70.7079616 C37.9335562,70.2016388 38.5680504,69.6953235 39.1666387,69.1890006 C39.5955798,68.8261759 39.9999268,68.4881161 40.3796857,68.1748164 C40.6530093,67.7470962 40.9829247,67.3015673 41.3694329,66.8382277 C41.8483036,66.259573 42.4827977,65.6327065 43.2729344,64.9576093 C44.063071,64.2825122 44.9130537,63.6315354 45.822908,63.0046595 C46.7327623,62.3777836 47.642603,61.8111927 48.5524573,61.3048698 C49.4623116,60.798547 50.3242659,60.4730586 51.1383461,60.3283949 C51.5214427,60.2319525 51.9524198,60.1716768 52.4312905,60.1475662 C52.9101612,60.1234556 53.3411384,60.352503 53.7242349,60.8347152 C53.9636703,61.0758214 54.1791588,61.4013098 54.3707071,61.8111902 C54.5622554,62.2210706 54.6580281,62.6912205 54.6580281,63.2216539 C54.6580281,63.8967511 54.3467668,64.463342 53.7242349,64.9214436 C53.101703,65.3795452 52.3714362,65.7532541 51.5334125,66.0425815 C50.6953888,66.3319088 49.8214629,66.5247908 48.9116085,66.6212333 C48.0017542,66.7176757 47.2355726,66.7176757 46.6130407,66.6212333 C45.9426218,67.1034455 45.3799571,67.633871 44.92503,68.2125257 C44.4701028,68.7911804 44.0750404,69.3698264 43.7398309,69.9484811 C43.3567344,70.6235783 43.2489901,71.2383897 43.4165948,71.7929337 C43.5841996,72.3474778 44.1708074,72.5283047 45.1764358,72.3354198 C46.0384031,72.1907561 46.7926131,72.0219844 47.4390885,71.8290995 C48.085564,71.6362146 48.7320297,71.3589467 49.3785051,70.9972875 C49.8665202,70.7242762 50.402284,70.3825715 50.985806,69.9721672 C51.5873491,68.7377589 52.6238629,67.3796815 54.0953578,65.8979185 C54.4305673,65.5603699 55.0171751,65.0058342 55.8551988,64.2342946 C56.6932225,63.462755 57.638978,62.7394475 58.6924935,62.0643503 C59.746009,61.3892532 60.8114803,60.8588277 61.8889394,60.4730579 C62.9663984,60.0872881 63.9121538,60.0872881 64.726234,60.4730579 C65.1093306,60.6659428 65.5163645,60.979376 65.9473482,61.413367 C66.1867835,61.1722609 66.4142437,60.9793789 66.6297355,60.8347152 C66.8452273,60.6900516 67.0487443,60.6418311 67.2402926,60.6900523 C67.6233891,60.7382735 68.0064799,60.882935 68.3895765,61.1240411 C68.772673,61.3651473 69.0719627,61.6424152 69.2874545,61.9558531 C69.5029463,62.2692911 69.598719,62.6188897 69.5747755,63.0046595 C69.550832,63.3904293 69.347315,63.7520831 68.9642184,64.0896316 C68.0543641,64.8611712 67.1684666,65.6688646 66.3064994,66.5127361 C65.4445321,67.3566075 64.6544074,68.1522458 63.9361013,68.8996747 C63.2177953,69.6471037 62.5952727,70.3101356 62.068515,70.8887903 C61.5417572,71.467445 61.1586664,71.8773193 60.9192311,72.1184254 C60.8234569,72.2630891 60.7995137,72.3595301 60.8474008,72.4077513 C60.8952879,72.4559725 60.9671174,72.4559725 61.0628915,72.4077513 C61.398101,72.2148664 61.9009077,71.8773229 62.5713267,71.3951106 C63.2417456,70.9128984 63.9480693,70.394528 64.6903189,69.8399839 C65.4325685,69.2854398 66.1388921,68.7550143 66.8093111,68.2486915 C67.2243744,67.9352218 67.5843697,67.6725827 67.8893007,67.4607715 C68.9577377,66.3133357 70.0143828,65.1896334 71.0592672,64.0896316 C72.1127827,62.9805435 72.9507939,62.0884642 73.5733258,61.413367 C74.1479706,60.8347124 74.686692,60.5212791 75.1895063,60.4730579 C75.6923205,60.4248366 76.1232976,60.5092225 76.4824507,60.726218 C76.8416037,60.9432135 77.1049786,61.2204814 77.2725833,61.55803 C77.4401881,61.8955786 77.4761029,62.1125708 77.3803287,62.2090133 C76.853571,62.8358892 76.183162,63.4989211 75.3690819,64.1981288 C74.5550017,64.8973366 73.8606496,65.512148 73.2860048,66.0425815 C72.9986824,66.4283513 73.0705119,66.500682 73.5014955,66.2595759 C74.6507852,65.4398151 75.8120292,64.6200665 76.9852624,63.8003057 C78.1584956,62.9805449 79.4394554,62.0884656 80.8281804,61.1240411 C81.211277,60.882935 81.5943678,60.8588248 81.9774644,61.0517097 C82.3605609,61.2445946 82.6957654,61.5098073 82.9830878,61.8473559 C83.2704102,62.1849045 83.4978704,62.522448 83.6654751,62.8599966 C83.8330798,63.1975451 83.5816765,63.6556399 82.9112575,64.2342946 C82.2887256,64.7647281 81.5105724,65.4398151 80.5767746,66.2595759 C79.6429767,67.0793367 78.7331361,67.8990852 77.8472253,68.718846 C76.9613145,69.5386069 76.2071045,70.2498593 75.5845726,70.8526246 C74.9620407,71.4553899 74.6268363,71.7808783 74.5789492,71.8290995 C74.1958526,72.1184268 74.0641652,72.3113088 74.1838828,72.4077513 C74.3036005,72.5041937 74.6028902,72.3595322 75.0817609,71.9737624 C76.0395023,71.2022228 77.1887747,70.2498679 78.5296126,69.1166692 C79.8704506,67.9834704 81.1873252,66.8623437 82.4802761,65.7532556 C83.7732269,64.6441674 84.9344709,63.6556471 85.9640429,62.7876651 C86.9936149,61.919683 87.6520522,61.3651473 87.9393746,61.1240411 C88.226697,60.882935 88.5140152,60.8106043 88.8013376,60.9070467 C89.08866,61.0034892 89.3520349,61.1602058 89.5914703,61.3772013 C89.8309056,61.5941968 90.022451,61.8111891 90.1661122,62.0281846 C90.3097734,62.2451801 90.4055461,62.3536762 90.4534332,62.3536762 C90.8365297,63.0287734 90.6928707,63.6556399 90.0224517,64.2342946 C88.7295009,65.2469403 87.4245978,66.3801221 86.1077034,67.6338739 C84.790809,68.8876258 83.5816787,70.1172485 82.4802761,71.3227792 C81.714083,72.14254 81.4267649,72.5162489 81.6183131,72.443917 C81.8098614,72.3715852 82.3126681,72.0460968 83.1267483,71.4674421 C84.0844896,70.8405662 85.0063019,70.153424 85.8922127,69.4059951 C86.7781234,68.6585661 87.8675379,67.8026522 89.1604888,66.8382277 C89.5914724,66.5006791 89.9147053,66.3077971 90.1301971,66.2595759 C90.3456889,66.2113547 90.4654048,66.24752 90.4893483,66.3680731 C90.5132918,66.4886262 90.4534339,66.669453 90.3097727,66.9105592 C90.1661115,67.1516653 89.9985093,67.3686575 89.806961,67.5615424 C88.5140101,69.0081792 87.1612207,70.3945186 85.7485522,71.7206023 C84.3358836,73.0466859 83.1267533,73.9267101 82.1211248,74.3607011 C81.8816895,74.4571436 81.5584566,74.5415294 81.1514165,74.6138613 C80.7443765,74.6861931 80.3253709,74.6982482 79.8943873,74.650027 C79.4634036,74.6018058 79.104256,74.4450892 78.8169336,74.1798724 C78.5296112,73.9146557 78.3859521,73.4927263 78.3859521,72.9140716 C78.3859521,72.576523 78.5296112,72.1787039 78.8169336,71.7206023 C79.104256,71.2625006 79.4514321,70.7802956 79.8584721,70.2739728 C80.2655122,69.7676499 80.708461,69.2613346 81.1873317,68.7550118 C81.6662024,68.2486889 82.1211227,67.778539 82.5521063,67.344548 C82.0253485,67.8267603 81.3549396,68.4054063 80.5408595,69.0805034 C79.7267793,69.7556006 78.9127113,70.4186325 78.0986312,71.069619 C77.284551,71.7206055 76.5183694,72.3113067 75.8000633,72.8417401 C75.0817573,73.3721736 74.5550074,73.7820479 74.219798,74.0713752 C73.9803626,74.3124813 73.5972718,74.5053633 73.0705141,74.650027 C72.5437563,74.7946907 72.088836,74.6741394 71.7057394,74.2883696 C71.3226429,73.8543786 71.0712395,73.3962839 70.9515218,72.9140716 C70.8318042,72.4318594 70.8677189,72.0702056 71.0592672,71.8290995 C71.1550414,71.6844358 71.3825015,71.4071679 71.7416545,70.9972875 C72.1008076,70.5874071 72.4958699,70.1172572 72.9268536,69.5868237 C73.3578372,69.0563903 73.8007859,68.5139096 74.2557131,67.9593656 C74.7106402,67.4048215 75.1057026,66.9105613 75.4409121,66.4765703 C74.8662673,66.9105613 73.8486823,67.645924 72.3881267,68.6826803 C70.9275711,69.7194366 69.479009,70.912894 68.042397,72.2630883 C67.7550745,72.5041945 67.3600121,72.8779033 66.8571979,73.3842262 C66.3543837,73.8905491 65.9593213,74.2642579 65.6719989,74.5053641 C65.4325635,74.698249 65.1093307,74.7705797 64.7022906,74.7223585 C64.2952505,74.6741373 63.9121597,74.5656411 63.5530067,74.3968669 C63.1938537,74.2280926 62.9185071,74.0231554 62.7269589,73.7820493 C62.6595788,73.6972365 62.6188634,73.6094407 62.6048127,73.5186617 Z M33.14284,60.6644658 C31.4162739,60.9534371 29.6730798,61.1307383 27.9132338,61.1963726 C25.3273321,61.2928151 23.004844,61.2687048 20.9457001,61.1240411 C20.6104906,61.0758199 20.047826,61.3892532 19.2576893,62.0643503 C18.4675527,62.7394475 17.61757,63.5953614 16.7077157,64.6321177 C15.7978613,65.668874 14.9119639,66.8020558 14.0499966,68.031697 C13.1880294,69.2613383 12.4936773,70.4186303 11.9669195,71.5036078 C11.4401618,72.5885854 11.1767868,73.51683 11.1767868,74.2883696 C11.1767868,75.0599092 11.5838208,75.4938937 12.397901,75.5903362 C14.0739484,75.8796635 15.7140559,75.8193879 17.3182727,75.4095075 C18.9224895,74.9996271 20.4548528,74.3848157 21.9154084,73.5650549 C23.375964,72.7452941 24.7526966,71.7567738 26.0456474,70.5994644 C27.2135391,69.5540944 30.3822845,66.349445 32.4804292,63.4131237 C32.4520345,63.373411 32.4181183,63.3336982 32.3786806,63.2939854 C31.9955841,62.9082156 31.851925,62.5465618 31.9476992,62.2090133 C32.0434733,61.8714647 32.2829051,61.5098109 32.6660016,61.1240411 C32.8237453,60.9651967 32.9826914,60.812005 33.14284,60.6644658 Z M35.3117489,56.7841526 C37.1314576,56.4948253 38.9152241,55.9402895 40.6631021,55.1205287 C42.4109802,54.3007679 43.9074286,53.3122476 45.1524924,52.1549382 C44.0032028,52.0584958 42.6384418,52.1308265 41.0581685,52.3719326 C39.4778952,52.6130388 37.8497593,52.9867476 36.1737119,53.4930705 C34.4976645,53.9993934 32.8575569,54.5780394 31.2533401,55.2290259 C29.6491233,55.8800124 28.2005612,56.5671546 26.9076104,57.290473 C28.4399966,57.3386942 29.9244734,57.3266391 31.3610855,57.2543072 C32.7976976,57.1819754 34.1145722,57.0252588 35.3117489,56.7841526 Z M53.2214232,63.4386484 C52.5988913,63.5350908 51.9165108,63.7159177 51.1742612,63.9811344 C50.4320117,64.2463512 49.7496312,64.5356742 49.1270993,64.8491121 C48.5045674,65.1625501 47.9897891,65.439818 47.582749,65.6809241 C47.1757089,65.9220302 46.9721919,66.0666917 46.9721919,66.1149129 C47.3074014,66.1631342 47.7862649,66.1028585 48.4087968,65.9340842 C49.0313287,65.76531 49.6777945,65.5483177 50.3482134,65.283101 C51.0186324,65.0178842 51.6291834,64.7165061 52.1798847,64.3789575 C52.730586,64.041409 53.077762,63.7279757 53.2214232,63.4386484 Z M53.4488856,72.0460939 C53.9277563,71.7085453 54.6699948,71.1298993 55.6756232,70.3101385 C56.6812517,69.4903777 57.6988366,68.658574 58.7284086,67.8147026 C59.7579806,66.9708312 60.6678212,66.2113583 61.4579579,65.5362611 C62.2480945,64.861164 62.6671001,64.5236205 62.7149872,64.5236205 C63.0980837,64.1860719 63.2297712,63.9449694 63.1100535,63.8003057 C62.9903358,63.6556421 62.7389325,63.6315318 62.3558359,63.7279743 C61.9727394,63.8726379 61.37416,64.2463468 60.5600798,64.8491121 C59.7459997,65.4518774 58.8840453,66.1631298 57.974191,66.9828906 C57.0643367,67.8026515 56.1664676,68.6465102 55.2805569,69.5144923 C54.3946461,70.3824743 53.7122656,71.1298921 53.2333949,71.756768 C52.9460725,72.1425378 52.814385,72.3595301 52.8383286,72.4077513 C52.8622721,72.4559725 53.0657891,72.3354213 53.4488856,72.0460939 Z M110.110977,58.8817654 C110.110977,58.6369246 110.658017,58.5930529 110.97294,58.5523083 C111.287862,58.5115638 113.311461,58.3793661 116.001057,56.7118212 C116.051768,56.6803801 116.360208,56.3104672 116.539784,56.8926498 C116.621491,57.1575459 116.623586,57.3386935 116.575699,57.4351359 C116.479925,57.5797996 116.408095,57.6521303 116.360208,57.6521303 C116.312321,57.7003516 114.005104,58.9243441 110.97294,59.0987598 C110.339055,59.1394411 110.110977,59.0987598 110.110977,58.8817654 Z M100.270233,65.6085926 C100.174459,65.7532563 100.078686,65.7773665 99.9829123,65.6809241 C99.7434769,65.3915967 99.6955906,65.0058327 99.8392518,64.5236205 C99.9350259,64.2825144 100.054742,64.0414119 100.198403,63.8003057 C100.342064,63.5591996 101.084307,62.6912248 101.563178,62.3536762 C101.956041,62.0767529 102.44908,61.7509156 103.215273,61.413367 C104.651885,60.8829336 106.280021,60.5453901 108.09973,60.4007264 C108.387052,60.4007264 112.411732,60.1458538 114.959518,59.3157543 C116.264668,58.8905206 117.389775,58.3031136 117.437662,58.3031136 C117.62921,58.2548924 117.772869,58.4959949 117.868643,59.0264284 C117.964417,59.5568618 118.073239,60.0195792 117.581322,60.2560634 C114.62245,61.6785123 112.875967,61.7492711 108.458881,61.9920188 C106.702758,62.0885293 105.154696,62.2090111 103.861745,62.6430021 C101.105992,63.8003057 100.366007,65.5121502 100.270233,65.6085926 Z M110.01551,75.3006089 C110.01551,75.5454497 109.468469,75.5893214 109.153547,75.6300659 C108.838624,75.6708105 106.815025,75.8030081 104.12543,77.4705531 C104.074718,77.5019942 103.766278,77.8719071 103.586703,77.2897244 C103.504995,77.0248284 103.502901,76.8436808 103.550788,76.7472384 C103.646562,76.6025747 103.718391,76.5302439 103.766278,76.5302439 C103.814165,76.4820227 106.121382,75.2580302 109.153547,75.0836144 C109.787432,75.0429331 110.01551,75.0836144 110.01551,75.3006089 Z M119.856253,68.5737817 C119.952027,68.429118 120.0478,68.4050077 120.143574,68.5014502 C120.383009,68.7907775 120.430896,69.1765416 120.287235,69.6587538 C120.19146,69.8998599 120.071745,70.1409624 119.928083,70.3820686 C119.784422,70.6231747 119.042179,71.4911495 118.563309,71.8286981 C118.170445,72.1056214 117.677406,72.4314587 116.911213,72.7690072 C115.474601,73.2994407 113.846465,73.6369842 112.026757,73.7816479 C111.739434,73.7816479 107.714754,74.0365205 105.166968,74.86662 C103.861818,75.2918537 102.736712,75.8792607 102.688825,75.8792607 C102.497276,75.9274819 102.353617,75.6863794 102.257843,75.1559459 C102.162069,74.6255124 102.053247,74.1627951 102.545164,73.9263108 C105.504036,72.503862 107.250519,72.4331031 111.667605,72.1903554 C113.423729,72.093845 114.97179,71.9733632 116.264741,71.5393722 C119.020494,70.3820686 119.760479,68.6702241 119.856253,68.5737817 Z M120.346787,59.6774116 C120.562278,59.7256329 120.729881,59.834129 120.849598,60.0029033 C120.969316,60.1716776 121.053117,60.3886698 121.101004,60.6538866 C121.148891,60.9191033 121.124948,61.1240404 121.029174,61.2687041 C120.502416,61.9920225 119.963695,62.7273851 119.412993,63.4748141 C118.862292,64.2222431 118.359485,64.9214403 117.904558,65.5724269 C117.449631,66.2234134 117.054569,66.7900043 116.719359,67.2722165 C116.38415,67.7544288 116.144718,68.0919723 116.001057,68.2848572 C115.95317,68.3330784 115.95317,68.3812989 116.001057,68.4295201 C116.240492,68.188414 116.635554,67.8147051 117.186256,67.3083823 C117.736957,66.8020594 118.132019,66.4283505 118.371455,66.1872444 C118.658777,65.8496958 118.802436,65.7773651 118.802436,65.97025 C118.802436,66.1631349 118.730607,66.3560169 118.586946,66.5489018 C118.491171,66.6935655 118.323569,66.934668 118.084134,67.2722165 C117.844698,67.6097651 117.569352,67.9593637 117.258086,68.3210229 C116.94682,68.6826821 116.623587,69.0081705 116.288378,69.2974978 C115.953168,69.5868252 115.66585,69.7314867 115.426415,69.7314867 C115.186979,69.7314867 114.995434,69.7194316 114.851773,69.695321 C114.708112,69.6712103 114.588396,69.538604 114.492622,69.2974978 C114.396847,69.0563917 114.420791,68.7429585 114.564452,68.3571887 C114.708113,67.9714189 114.923602,67.5374344 115.210924,67.0552221 C115.163037,67.0552221 115.055293,67.1516631 114.887688,67.344548 C114.720083,67.5374329 114.588396,67.6820944 114.492622,67.7785369 C114.253186,68.1643067 113.953897,68.6344566 113.594744,69.1890006 C113.235591,69.7435447 112.960244,70.0208126 112.768696,70.0208126 C112.05039,69.9243702 111.810958,69.3939446 112.050393,68.4295201 C111.715184,68.8635112 111.403923,69.2613303 111.1166,69.6229895 C110.829278,69.9846487 110.565903,70.2378063 110.326467,70.38247 C110.27858,70.38247 110.254637,70.3945251 110.254637,70.4186357 C110.254637,70.4427463 110.230694,70.4548015 110.182807,70.4548015 C109.79971,70.5512439 109.488449,70.3342516 109.249014,69.8038182 C109.15324,69.6109333 109.15324,69.3698308 109.249014,69.0805034 C109.392675,68.7429548 109.548306,68.3933562 109.71591,68.031697 C109.883515,67.6700378 110.039146,67.296329 110.182807,66.9105592 C109.991259,67.1516653 109.799713,67.3686575 109.608165,67.5615424 C109.416617,67.7544273 109.249015,67.9473093 109.105353,68.1401942 C108.913805,68.3813004 108.72226,68.6103477 108.530711,68.8273433 C108.339163,69.0443388 108.147618,69.2733862 107.956069,69.5144923 C107.860295,69.6109347 107.740579,69.7917616 107.596918,70.0569783 C107.453257,70.3221951 107.333541,70.503022 107.237767,70.5994644 C107.141993,70.6959069 106.986362,70.7200171 106.77087,70.6717959 C106.555379,70.6235747 106.375805,70.5512439 106.232144,70.4548015 C106.040595,70.5512439 105.801163,70.65974 105.513841,70.7802931 C105.226519,70.9008462 104.915257,70.8646808 104.580048,70.6717959 C104.292725,70.5271322 104.113152,70.2860297 104.041321,69.9484811 C103.96949,69.6109326 103.981462,69.3216095 104.077236,69.0805034 C104.125123,68.9358397 104.196953,68.7791231 104.292727,68.6103488 C104.388501,68.4415745 104.484274,68.2607477 104.580048,68.0678628 L104.508218,68.1401942 C104.412444,68.1884155 104.041321,68.6103488 103.718085,69.0805034 C103.520151,69.3684027 103.334991,69.6591538 103.143443,69.9484811 C102.951895,70.2378085 102.760349,70.4909661 102.568801,70.7079616 C102.377253,70.9249571 102.257537,71.0334533 102.20965,71.0334533 C101.635005,70.9370108 101.359658,70.5391917 101.383602,69.8399839 C101.407546,69.1407762 101.778665,68.2366418 102.496971,67.1275536 C102.592745,67.0311111 102.904008,66.5006813 102.999783,66.4042388 C103.86175,65.3915931 104.556102,64.6923959 105.08286,64.3066261 C105.178634,64.2101836 105.801162,64.045745 106.160313,64.3789575 C106.465542,64.662142 106.687067,64.8852771 106.878616,65.0299408 C107.118051,64.7888347 107.321568,64.7526693 107.489173,64.9214436 C107.656778,65.0902179 107.788465,65.2228243 107.884239,65.3192667 C108.075787,65.5121516 108.135645,65.6688682 108.063815,65.7894213 C107.991984,65.9099744 107.908183,66.0425807 107.812409,66.1872444 C107.381425,66.7176779 106.926505,67.211938 106.447634,67.6700397 C105.968764,68.1281413 105.585673,68.6947322 105.29835,69.3698293 C105.202576,69.6109354 105.238491,69.7314867 105.406096,69.7314867 L105.801162,69.7314867 C106.040597,69.6832655 106.280029,69.538604 106.519465,69.2974978 C106.7589,68.9117281 107.034246,68.429523 107.345512,67.8508683 C107.656778,67.2722136 107.96804,66.729733 108.279305,66.2234101 C108.590571,65.7170873 108.853946,65.2710477 109.069438,64.8852779 C109.28493,64.4995081 109.71591,63.8726372 109.931401,63.8726372 C110.146892,63.8726372 110.987515,64.6610827 110.901109,64.8129464 C110.541958,65.4441824 109.967318,65.9461361 109.536335,66.6212333 C109.584222,66.6212333 109.608165,66.6453435 109.608165,66.6935647 C109.799713,66.5006798 109.979287,66.319853 110.146892,66.1510787 C110.314497,65.9823044 110.470127,65.8014775 110.613788,65.6085926 C110.853224,65.3674865 111.092656,65.1384391 111.332091,64.9214436 C111.571526,64.7044481 111.810958,64.4754007 112.050393,64.2342946 C112.289829,63.9931885 112.672922,64.1860726 112.768696,64.3789575 C112.768696,64.3789575 113.46643,64.9214436 112.912356,65.5362611 C112.52926,66.0184734 112.132693,66.5123335 111.727157,67.0190564 C110.829899,68.1401942 110.398298,68.984061 110.398298,69.0805034 C110.494072,68.984061 110.541958,68.9358405 110.541958,68.9358405 C110.829281,68.6947343 111.152513,68.3933562 111.511666,68.031697 C111.87082,67.6700378 112.241939,67.296329 112.625035,66.9105592 C112.672922,66.7658955 112.744752,66.621234 112.840526,66.4765703 C112.9363,66.3319066 113.032073,66.1631349 113.127847,65.97025 C113.319395,65.6809226 113.486997,65.4639304 113.630659,65.3192667 C114.492626,64.306621 115.186978,63.6074237 115.713736,63.2216539 C115.857397,63.1252115 116.048942,63.076991 116.288378,63.076991 C116.527813,63.076991 117.045009,63.3858605 117.294001,63.6556428 C117.677098,63.0769881 118.108075,62.4139562 118.586946,61.6665272 C119.065816,60.9190982 119.448907,60.3766176 119.736229,60.039069 C119.927778,59.7497417 120.131295,59.6291904 120.346787,59.6774116 Z M103.861745,67.9593656 C104.101181,67.74237 104.352584,67.5133227 104.615963,67.2722165 C104.879342,67.0311104 105.106802,66.8141182 105.29835,66.6212333 C105.489899,66.4283484 105.609615,66.2836869 105.657502,66.1872444 C105.657502,66.1872444 105.657502,65.8006745 105.442011,65.8979185 C105.22652,65.9951625 104.639909,66.4162911 104.184982,67.0190564 C103.730054,67.6218217 103.406822,68.1160818 103.215273,68.5018516 C103.406822,68.3571879 103.62231,68.1763611 103.861745,67.9593656 Z M116.216547,65.1746038 C116.312322,65.0299401 116.336265,64.9093888 116.288378,64.8129464 C116.240491,64.7165039 116.144718,64.7165039 116.001057,64.8129464 C115.857396,64.9093888 115.653879,65.1022708 115.3905,65.3915982 C115.127121,65.6809255 114.839803,66.0305242 114.528537,66.4404046 C114.217271,66.850285 113.917981,67.2481041 113.630659,67.6338739 C113.343336,68.0196437 113.127848,68.3571872 112.984186,68.6465146 C112.840525,68.9840631 112.888412,69.0322836 113.127847,68.7911775 C113.271508,68.6465138 113.51094,68.369246 113.846149,67.9593656 C114.181359,67.5494851 114.516563,67.151666 114.851773,66.7658962 C115.186982,66.3801264 115.498244,66.0184727 115.785566,65.6809241 C116.072888,65.3433755 116.216547,65.1746038 116.216547,65.1746038 Z M136.803894,73.9267123 C137.18699,73.5891637 137.354592,73.3360061 137.306705,73.1672318 C137.258818,72.9984575 136.923614,73.1310639 136.301082,73.5650549 C135.67855,74.0472671 135.295459,74.3848106 135.151798,74.5776955 C135.008137,74.674138 135.115881,74.6861931 135.475034,74.6138613 C135.834187,74.5415294 136.277136,74.3124821 136.803894,73.9267123 Z M173.964073,64.5236205 C174.34717,64.1860719 174.478857,63.9449694 174.35914,63.8003057 C174.239422,63.6556421 174.011962,63.6315318 173.676752,63.7279743 C173.245769,63.8726379 172.623246,64.2463468 171.809166,64.8491121 C170.995086,65.4518774 170.133132,66.1631298 169.223277,66.9828906 C168.313423,67.8026515 167.427525,68.6465102 166.565558,69.5144923 C165.703591,70.3824743 165.033182,71.1298921 164.554311,71.756768 C164.266989,72.1425378 164.135301,72.3595301 164.159245,72.4077513 C164.183189,72.4559725 164.386706,72.3354213 164.769802,72.0460939 C165.200786,71.7085453 165.919081,71.1298993 166.924709,70.3101385 C167.930338,69.4903777 168.947923,68.658574 169.977495,67.8147026 C171.007067,66.9708312 171.916907,66.2234134 172.707044,65.5724269 C173.497181,64.9214403 173.916186,64.5718417 173.964073,64.5236205 Z M165.743501,79.8900406 C166.00688,79.673045 166.246312,79.4319425 166.461803,79.1667258 C166.677295,78.9015091 166.832926,78.6362963 166.9287,78.3710796 C167.024474,78.1058628 166.976588,77.925036 166.78504,77.8285935 C166.689265,77.8285935 166.533635,77.9370896 166.318143,78.1540851 C166.102651,78.3710807 165.887163,78.6242383 165.671671,78.9135656 C165.456179,79.202893 165.288577,79.4681057 165.168859,79.7092119 C165.049141,79.950318 165.061113,80.0949795 165.204774,80.1432007 C165.300548,80.1914219 165.480122,80.1070361 165.743501,79.8900406 Z M179.004162,72.0460939 C179.483033,71.7085453 180.225271,71.1298993 181.2309,70.3101385 C182.236528,69.4903777 183.254113,68.658574 184.283685,67.8147026 C185.313257,66.9708312 186.223098,66.2113583 187.013234,65.5362611 C187.803371,64.861164 188.222377,64.5236205 188.270264,64.5236205 C188.65336,64.1860719 188.785048,63.9449694 188.66533,63.8003057 C188.545612,63.6556421 188.294209,63.6315318 187.911112,63.7279743 C187.528016,63.8726379 186.929437,64.2463468 186.115356,64.8491121 C185.301276,65.4518774 184.439322,66.1631298 183.529468,66.9828906 C182.619613,67.8026515 181.721744,68.6465102 180.835833,69.5144923 C179.949923,70.3824743 179.267542,71.1298921 178.788671,71.756768 C178.501349,72.1425378 178.369662,72.3595301 178.393605,72.4077513 C178.417549,72.4559725 178.621066,72.3354213 179.004162,72.0460939 Z" id="Combined-Shape"></path>
            </g>
        </g>
    </g>
</svg>